<?xml version="1.0" encoding="utf-8"?>
<!-- Generator: Adobe Illustrator 22.0.0, SVG Export Plug-In . SVG Version: 6.00 Build 0)  -->
<svg version="1.1" id="Capa_1" xmlns="http://www.w3.org/2000/svg" xmlns:xlink="http://www.w3.org/1999/xlink" x="0px" y="0px"
	 viewBox="0 0 792 271.2" style="enable-background:new 0 0 792 271.2;" xml:space="preserve">
<style type="text/css">
	.st0{fill:#fff;}
</style>
<g>
	<path class="st0" d="M163,93.4c-0.2-0.9-0.8-2.1-0.5-2.5c0.3-0.3,1-1.3,0.6-1.4c-0.4-0.1-1.3-0.9-1.6-2.3c-0.3-1.4-1-4.1-3.6-4.3
		c-1.5-1.9-3.9-4.8-6.6-6.1c-2.7-1.3-7.9-3.2-11.4-3.9c-3.5-0.8-7.1-1.7-8.7-1.4c-1.6,0.3-3.4,1-4.3,1c-0.9,0-12.9-1.1-20.5,1.2
		c-7.7,2.4-8.1,2.3-10.3,4.8c-1,1.1-1.4,1.8-1.6,2.1c0.1-0.1,0.1-0.3,0.2-0.6c0.3-1.4,2.3-4,2.2-4.8c-0.1-0.8-2.1-1.4-2.5-0.2
		c-0.3,1.2-4.5,5.7-5,6.6c-0.5,1-1.5,1.4-2.2,3.9c-0.7,2.5-3.7,17.7-3.7,18.8c0,1.1,0.3,1.7,0.5,1.9c0.2,0.2,0.5-0.3,0.1,3.4
		c-0.5,3.7,0,22.5,0,22.5s-1.9,11.3-1.9,13.9c0.1,2.6-0.6,7.8-0.9,10.1c-0.3,2.3-0.8,9.1-0.8,10.5c0.1,1.4,0.9,9.7,0.7,10.7
		c-0.2,1-1.1,5.1-0.7,5.3c0.3,0.2,1.9,0.3,2,0.7c0.1,0.4,1.7,12.2,2.3,13.2c0.5,1-0.6,0.9-0.8,0.6c-0.3-0.3-3.6-2.2-3-0.6
		c0.6,1.6,2.8,1.6,4.5,3.6c1.6,2,6.6,7.8,8.5,9.1c1.9,1.2,1.9,1.9,1.9,1.9s-0.8-0.1-0.2,0.3c0.6,0.3,6.9,2.9,7.3,3.5
		c0.3,0.6,1,1.6,1.9,1.2c0.9-0.3,3.9-0.2,4.7,0.8c0.8,1,1.6,0.6,2,0.8c0.4,0.3,0.2,0.9,0.8,1c0.6,0.1,0.6-0.6,1.7-0.5
		c1.2,0.1,3.6,1.4,4.5,1.2c0.9-0.3,1.2-0.8,1.2-0.8l2.2,0.1c0,0,0.6,0.6,1.4,0.8c0.8,0.2,3.9,0.3,5.6-0.3c1.7-0.6,3.3,0.5,6.8-0.1
		c3.5-0.6,8.9-2.6,9.6-3.4s1.3-1,1.3-1c1.7-0.7,4.7-3.9,5.8-4.2c1.1-0.3,4.8-2.3,6.3-5c1.6-2.6,2.2-6,2.5-9.9
		c0.3-3.9-0.3-3.2,0.3-3.9c0.6-0.7,1.5-2.6,1.2-5.2c-0.4-2.6-1.2-2.3-0.6-5c0.6-2.6,0.8-5.7,0.7-8c-0.1-2.3,0.3-12.9,0.6-14.8
		c0.4-1.9-0.1-7.7,0-9.8c0.1-2.2,1.9-9.2,1.8-14.2c-0.1-5,0.1-15-1-21.3c-1-6.2,0.1-5.5,0.1-5.5s1.4,0.2,1.3-1.3
		c-0.1-1.6-2.1-6.5-1.7-6.4c0.4,0.1,1,0.7,1.7,0.8c0.7,0.1,1.5-0.1,1.6-0.8C167.6,99.3,163.2,94.2,163,93.4z M153,165.1
		c0,0.8-0.9,2.8-1,3.9c-0.1,1.1-1,1.7-1.3,1.7c-0.3,0-0.6-0.5-0.6-0.5s0.4,2.1,0.5,3.9c0.1,1.9-0.7,3.4-1.3,4.5
		c-0.6,1.1-0.2,2.2,0.9,2.7c1.1,0.5,0.8,0.2,0.7,0.9c-0.1,0.7-1.9,10-2.3,11.2c-0.4,1.2-3.3,6.2-3.4,6.3c-0.1,0.2-3.7,8.4-4.1,8.9
		c-0.3,0.5-1.1,0.1-1.5,0.2c-0.4,0.1-1.5,1.1-1.6,1.3c0,0.2-0.8,0.9-1.4,1.2c-0.6,0.3-2,0.3-2.6,0.6c-0.6,0.3-2.3,1.6-2.9,1.7
		c-0.6,0.2-3.2,0-3.2,0s0.2-0.2-0.7-0.3c-0.9-0.1-0.6-0.3,0.4-0.2c1,0,1.6-0.5,1.8-0.8c0.2-0.3-0.2-0.4-0.8-0.3
		c-0.6,0.1-1.6,0.1-2.4,0.3c-0.8,0.2-5.6,0-8.2,0.1c-2.6,0-5.8,0-6.6-0.1c-0.8-0.1-2.9-2.6-2.9-2.6s0,0,0.3-0.1c0.3-0.1,2,0.4,3,0.7
		c1,0.3,4.3,0.7,5.2,0.7c0.8,0,4.7,0.7,5.3,0.7c0.6,0,1.1-0.4,0.4-1.1c-0.7-0.7-2.3-0.7-3.9-0.9c-1.6-0.2-3-0.2-4.1-0.6
		c-1.2-0.3-3.2-1.4-5.1-1.6c-1.9-0.3-4.1-0.7-4.1-0.7s-4.1-5.2-4.3-5.8c-0.3-0.6-0.3-1.7-0.4-3.3c0-1.6-2.5-12.7-2.7-13.9
		c-0.2-1.3-2.2-8.1-2.4-9.2s0.5-3.7,0.7-6.2c0.2-2.5,0.1-9.4,0.2-12.7c0.1-3.4-1.3-17.7-1.5-19.4s0-1.9,0-1.9s2.1-0.2,2.3-0.6
		c0.2-0.3-0.3-0.6-0.2-1.5c0.2-0.9-0.6-11.6-0.9-13.5c-0.2-1.9-1.3-5.2-1.3-6.3c0-1.2,0.8-8.2,0.8-9.6c0.1-1.4,0.3-5.8,0.3-6.4
		c0-0.6,0.6-3.5,1.2-3.6c0.6-0.1,2-0.1,2.9-0.5c0.8-0.3,4.8-4.9,7-6.5c2.2-1.6,2.7-2.5,2.3-2.8c-0.3-0.3-2.6,1.4-3.8,1.7
		c-1.1,0.3-3.8,4.4-4.6,4.8c-0.8,0.4,1.7-2.5,3.2-4.2c1.5-1.7,9.1-5.1,11.3-5.9c2.3-0.8,13.2-1.7,15.1-1.7c1.9,0,1.1,0.1,1.1,0.4
		c0,0.4,2.4,1,4,1.3c1.6,0.2,3.4,1,5.6,2c2.3,1,4.3,4.1,4.1,4.4c-0.3,0.3-0.6,0.5-0.9,1c-0.3,0.4,2.5,1.9,3.8,3.1
		c1.2,1.2,1,1.2,1.4,2.2c0.5,0.9,1.9,6.6,2.6,7.9c0.6,1.3-0.2,4.3-0.6,6.5c-0.3,2.2-0.5,6.8-0.5,9.8c0,3,1.2,14,1.4,14.8
		c0.2,0.8,0,2.2-0.5,2.6c-0.5,0.4-0.5,0.9-0.6,2.6c-0.1,1.7-0.2,14.3-0.2,15.9C151.7,153.8,153,164.3,153,165.1z"/>
	<path class="st0" d="M320.2,100c0.2,0.2,1.1,1.1,1.8,1c0.9-0.2,1.9-0.3,2-0.6c0-0.3-2.2-4.1-3.8-5.7c-1.6-1.6-1.6-2.2-1.6-2.8
		c0-0.6-0.1-1.2-0.1-1.2s0.5,0.2,0.5-0.4c0-0.6-1.1-1.2-1.1-1.6c0-0.3-0.4-2.3-0.6-3.1c-0.2-0.8-2.2-2.8-3-2.9
		c-0.8-0.1-0.8-0.1-0.8-0.1s-2.3-4.1-5.7-5.7c-3.4-1.7-6-2.3-6-2.3s0.1-0.7-1.2-0.8c-1.3-0.1-3.4-0.6-3.4-0.6s-4.7-1.2-6.5-1.3
		c-1.7-0.2-7.7,0.7-7.7,0.7s-7.5-0.8-11.9-0.3c-4.4,0.6-4.4,0.6-4.4,0.6s-9.5,1.5-11.7,3.2c-2.2,1.7-4.7,4.3-4.7,4
		c0-0.3,1.2-3.2,1.9-4c0.7-0.9,0.8-1.2,0.8-1.2s-0.7-0.7-1.4-0.2c-0.7,0.5-4.4,5-5.3,6c-0.9,1-1.7,3-1.7,3s-0.3-0.4-0.6,0.2
		c-0.2,0.7,0.1,0.6-0.3,1.3c-0.4,0.7-3.7,16.9-3.9,18.4c-0.2,1.6-0.3,1.8,0,2.1c0.4,0.3,0.6,0.6,0.4,1.6c-0.1,1-0.8,8.1-0.7,11.5
		c0.2,3.3,0.3,8.9,0.5,9.5c0.2,0.6,2.3,6,3.4,6.9c1.2,0.9,6,3.6,8.3,4.8c2.3,1.3,2.8,1.9,3.5,1.8c0.7-0.1,0.8-0.1,1.2,0.3
		c0.4,0.4,3.6,4,5.2,4.6c1.7,0.7,3.6,1.8,4.1,1.8c0.5,0.1,1.3,0.7,2.7,1.6c1.4,1,4.6,3.6,5.8,3.8c1.1,0.3,1.6,0.3,2.3,0.7
		c0.8,0.4,3.6,2.3,5.7,3.2c2.1,0.9,3.1,1.3,4.3,2.2c1.2,0.8,6.9,6.9,8,7.9c1,1,6.7,6.3,7.4,7c0.1,0.2,0.2,0.3,0.2,0.3
		c0,0-0.2,0-0.1,0.5c0.2,0.9,1.8,2.3,1.8,2.3s-0.6,1.7,0.1,2.8c0.7,1.1,1.6,3.1,1.6,3.3c-0.1,0.3-1.2,0.3-1.3,0.7
		c-0.1,0.4-0.4,0.8,0.2,2.7c0.6,1.9-0.5,4.3-1.1,6.7c-0.6,2.4-0.8,3.1-0.8,3.1L298,208c0,0-1.9,1-2.2,1.1c-0.3,0.1-4.6,2.2-5,1.6
		c-0.4-0.6,1.7-0.9,2.1-1.2c0.4-0.3,1-0.8,0.4-1.3c-0.6-0.4-3-0.1-5.3,0.3c-2.2,0.3-10.8,0.8-10.8,0.8l-3.8-1c0,0-5.8-0.1-8.4-0.6
		c-2.6-0.6-3.6-1-3.6-1l-4.1-5.4c0,0-1.3-10.7-1.8-12.2c-0.6-1.4-1.9-7.4-2.7-10.5c-0.8-3.1-1-3.5-1-4c0-0.6,1.2-7.3,1.2-7.8
		c0-0.5-1.3-1-2.7-0.8s-4.5,0.1-5.8,0.1s-3-0.4-4.5,0c-1.5,0.4-3-0.8-3,0.5c0,1.3,0.7,10.1,0.4,11.3c-0.3,1.2-0.5,2.5-0.4,3.7
		c0.1,1.2,0.8,1.4,1,1.5c0.3,0.1-0.5,1.4-0.5,2.8c0,1.4-0.7,5.9,0,8.8c0.3,1.4,0.5,1.9,0.6,2l0.1-0.1c0,0,0,0.3-0.1,0.1l-0.6,0.5
		c0,0,0.2,1,0.8,1c0.6-0.1,0.5-0.1,0.7,0.9c0.2,1,0.7,2.1,1.6,2c0.9-0.1,1.1-0.4,1.4-0.2c0.3,0.2,2.8,3.8,5.7,6.2
		c2.9,2.4,4.3,3.4,4.3,3.8c0,0.3-1,0.3-0.5,0.6c0.6,0.3,7.6,3.2,7.8,3.5c0.2,0.3,0.2,1.4,1,1.4c0.8,0,2.3-0.8,3.8-0.1
		c1.4,0.7,1.9,1.2,3.1,1.4c1.2,0.3,0.7,1.1,1.6,1.1c0.8,0,1.1-0.1,1.4-0.5c0.3-0.4,0.6-0.2,1.9,0.3c1.4,0.6,3.3,1.2,3.6,0.7
		c0.3-0.5,0.3-0.8,0.3-0.8s2.3-0.1,2.5,0.2c0.2,0.3,0.5,1.1,1.9,1.2c1.4,0.1,4.5,0.2,5.3,0c0.9-0.2,1.6-0.6,1.6-0.6
		c1.3,0,5.8,0,7.6-0.7c1.9-0.7,4.2-1.5,5.1-1.8c1-0.3,5.9-0.7,8.1-1.9c2.2-1.2,5-3.6,5.7-5.1c0.8-1.5,1.6-3.2,1.9-3.7
		c0.3-0.5,1.6-3.2,1.6-4.6s0.3-5.6,0.3-6.2c0-0.6,0.3-0.7,0.9-1.9c0.6-1.2,1.6-3.2,1.6-4.3c0-1.2,0.4-6.7-0.4-8.2c-0.8-1.4-1-2-1-2
		l0.4-9c0,0-1.7-2.6-3.5-4.4c-1.8-1.8-7-7.2-7-7.2h-0.4c0,0-7.4-6.1-10.1-7.6c-2.8-1.6-4.7-3.6-5.1-4.2c-0.4-0.6-1.6-0.7-1.6-0.7
		l-2.5-1.7c0,0-10.1-4.7-10.6-5.3c-0.4-0.6-9.5-5.5-11.4-6.5c-1.9-1-9.5-4.9-9.5-4.9l-2.7-5.2c0,0,0.6-5.9,1-7.5
		c0.4-1.6,5.4-26.8,5.6-27c0.2-0.2,3.4-3.2,3.9-3.3c0.6-0.1,2.3-0.4,4.5-0.8c2.1-0.3,11-2.6,11.9-2.7c0.9-0.1,7.2-0.6,8.7,0
		c1.4,0.6,10.1,3.5,11.3,4.8c1.2,1.3-0.5,0.8-0.5,0.8s0.1,0.8,1.1,1c1.1,0.2,3,2.5,3.3,3.2c0.2,0.7,3.2,9.2,3.2,10.1
		s-0.1,1.8-0.3,3.6c-0.2,1.8-0.7,4.7-0.7,5.9c0.1,1.2,0.2,1.8,1,2.3c0.8,0.6,1.4-0.3,1.8-0.4c0.4-0.1,0.7-0.6,2.1,0.2
		c1.4,0.8,7-0.1,7.4-0.3c0.4-0.3,0.8-3.9,0.7-4.1c-0.1-0.2,0.5-0.5,0.8-0.8c0.4-0.4,0.4-0.6,0-1.9C321.3,104,320.3,100.4,320.2,100z
		 M240.1,192.9c-0.5-1.2-0.4-3-0.4-3l1.1,3.9C240.7,193.8,240.6,194.1,240.1,192.9z M247.7,200.6c-0.6-0.4-1.1-0.6-1.1-1.2
		c0-0.6,0-0.6,0-0.6c0.1,0.2,1.3,0.8,1.7,1.9c0.1,0.5,0.5,1.3,0.8,2.1C248.6,201.8,248,200.8,247.7,200.6z M288.5,147.4l4.3,3.8
		l-4.6-3.1L288.5,147.4z M255.9,102.5v-6l1.8-3.5L255.9,102.5z"/>
	<path class="st0" d="M476.6,100c0.2,0.2,1.1,1.1,1.8,1c0.9-0.2,1.9-0.3,2-0.6c0-0.3-2.2-4.1-3.8-5.7c-1.6-1.6-1.6-2.2-1.6-2.8
		c0-0.6-0.1-1.2-0.1-1.2s0.5,0.2,0.5-0.4c0-0.6-1.1-1.2-1.1-1.6c0-0.3-0.4-2.3-0.6-3.1c-0.2-0.8-2.2-2.8-3-2.9
		c-0.8-0.1-0.8-0.1-0.8-0.1s-2.3-4.1-5.7-5.7c-3.4-1.7-6-2.3-6-2.3s0.1-0.7-1.2-0.8c-1.3-0.1-3.4-0.6-3.4-0.6s-4.7-1.2-6.5-1.3
		c-1.7-0.2-7.7,0.7-7.7,0.7s-7.5-0.8-11.9-0.3c-4.4,0.6-4.4,0.6-4.4,0.6s-9.5,1.5-11.7,3.2c-2.2,1.7-4.7,4.3-4.7,4
		c0-0.3,1.2-3.2,1.9-4c0.7-0.9,0.8-1.2,0.8-1.2s-0.7-0.7-1.4-0.2c-0.7,0.5-4.4,5-5.3,6c-0.9,1-1.7,3-1.7,3s-0.3-0.4-0.6,0.2
		c-0.2,0.7,0.1,0.6-0.3,1.3c-0.4,0.7-3.7,16.9-3.9,18.4c-0.2,1.6-0.3,1.8,0,2.1c0.4,0.3,0.6,0.6,0.4,1.6c-0.1,1-0.8,8.1-0.7,11.5
		c0.2,3.3,0.3,8.9,0.5,9.5c0.2,0.6,2.3,6,3.4,6.9c1.2,0.9,6,3.6,8.3,4.8c2.3,1.3,2.8,1.9,3.5,1.8c0.7-0.1,0.8-0.1,1.2,0.3
		c0.4,0.4,3.6,4,5.2,4.6c1.7,0.7,3.6,1.8,4.1,1.8c0.5,0.1,1.3,0.7,2.7,1.6c1.4,1,4.6,3.6,5.8,3.8c1.1,0.3,1.6,0.3,2.3,0.7
		c0.8,0.4,3.6,2.3,5.7,3.2c2.1,0.9,3.1,1.3,4.3,2.2c1.2,0.8,6.9,6.9,8,7.9c1,1,6.7,6.3,7.4,7c0.1,0.2,0.2,0.3,0.2,0.3
		c0,0-0.2,0-0.1,0.5c0.2,0.9,1.8,2.3,1.8,2.3s-0.6,1.7,0.1,2.8c0.7,1.1,1.6,3.1,1.6,3.3c-0.1,0.3-1.2,0.3-1.3,0.7
		c-0.1,0.4-0.4,0.8,0.2,2.7c0.6,1.9-0.5,4.3-1.1,6.7c-0.6,2.4-0.8,3.1-0.8,3.1l-4.7,10.5c0,0-1.9,1-2.2,1.1c-0.3,0.1-4.6,2.2-5,1.6
		c-0.4-0.6,1.7-0.9,2.1-1.2c0.4-0.3,1-0.8,0.4-1.3c-0.6-0.4-3-0.1-5.3,0.3c-2.2,0.3-10.8,0.8-10.8,0.8l-3.8-1c0,0-5.8-0.1-8.4-0.6
		c-2.6-0.6-3.6-1-3.6-1l-4.1-5.4c0,0-1.3-10.7-1.8-12.2c-0.6-1.4-1.9-7.4-2.7-10.5c-0.8-3.1-1-3.5-1-4c0-0.6,1.2-7.3,1.2-7.8
		c0-0.5-1.3-1-2.7-0.8c-1.4,0.2-4.5,0.1-5.8,0.1s-3-0.4-4.5,0c-1.5,0.4-3-0.8-3,0.5c0,1.3,0.7,10.1,0.4,11.3
		c-0.3,1.2-0.5,2.5-0.4,3.7c0.1,1.2,0.8,1.4,1,1.5c0.3,0.1-0.5,1.4-0.5,2.8c0,1.4-0.7,5.9,0,8.8c0.3,1.4,0.5,1.9,0.6,2l0.1-0.1
		c0,0,0,0.3-0.1,0.1l-0.6,0.5c0,0,0.2,1,0.8,1c0.6-0.1,0.5-0.1,0.7,0.9c0.2,1,0.7,2.1,1.6,2c0.9-0.1,1.1-0.4,1.4-0.2
		c0.3,0.2,2.8,3.8,5.7,6.2c2.9,2.4,4.3,3.4,4.3,3.8c0,0.3-1,0.3-0.5,0.6c0.6,0.3,7.6,3.2,7.8,3.5c0.2,0.3,0.2,1.4,1,1.4
		c0.8,0,2.3-0.8,3.8-0.1c1.4,0.7,1.9,1.2,3.1,1.4c1.2,0.3,0.7,1.1,1.6,1.1c0.8,0,1.1-0.1,1.4-0.5c0.3-0.4,0.6-0.2,1.9,0.3
		c1.4,0.6,3.3,1.2,3.6,0.7c0.3-0.5,0.3-0.8,0.3-0.8s2.3-0.1,2.5,0.2c0.2,0.3,0.5,1.1,1.9,1.2c1.4,0.1,4.5,0.2,5.3,0
		c0.9-0.2,1.6-0.6,1.6-0.6c1.3,0,5.8,0,7.6-0.7c1.9-0.7,4.2-1.5,5.1-1.8c1-0.3,5.9-0.7,8.1-1.9c2.2-1.2,5-3.6,5.7-5.1
		c0.8-1.5,1.6-3.2,1.9-3.7c0.3-0.5,1.6-3.2,1.6-4.6s0.3-5.6,0.3-6.2c0-0.6,0.3-0.7,0.9-1.9c0.6-1.2,1.6-3.2,1.6-4.3
		c0-1.2,0.4-6.7-0.4-8.2c-0.8-1.4-1-2-1-2l0.4-9c0,0-1.7-2.6-3.5-4.4c-1.8-1.8-7-7.2-7-7.2h-0.4c0,0-7.4-6.1-10.1-7.6
		c-2.8-1.6-4.7-3.6-5.1-4.2c-0.4-0.6-1.6-0.7-1.6-0.7l-2.5-1.7c0,0-10.1-4.7-10.6-5.3c-0.4-0.6-9.5-5.5-11.4-6.5
		c-1.9-1-9.5-4.9-9.5-4.9l-2.7-5.2c0,0,0.6-5.9,1-7.5c0.4-1.6,5.4-26.8,5.6-27c0.2-0.2,3.4-3.2,3.9-3.3s2.3-0.4,4.5-0.8
		c2.1-0.3,11-2.6,11.9-2.7c0.9-0.1,7.2-0.6,8.7,0c1.4,0.6,10.1,3.5,11.3,4.8c1.2,1.3-0.5,0.8-0.5,0.8s0.1,0.8,1.1,1
		c1.1,0.2,3,2.5,3.3,3.2c0.2,0.7,3.2,9.2,3.2,10.1s-0.1,1.8-0.3,3.6c-0.2,1.8-0.7,4.7-0.7,5.9c0.1,1.2,0.2,1.8,1,2.3
		c0.8,0.6,1.4-0.3,1.8-0.4c0.4-0.1,0.7-0.6,2.1,0.2c1.4,0.8,7-0.1,7.4-0.3c0.4-0.3,0.8-3.9,0.7-4.1c-0.1-0.2,0.5-0.5,0.8-0.8
		c0.4-0.4,0.4-0.6,0-1.9C477.7,104,476.7,100.4,476.6,100z M396.5,192.9c-0.5-1.2-0.4-3-0.4-3l1.1,3.9
		C397.1,193.8,397,194.1,396.5,192.9z M404.1,200.6c-0.6-0.4-1.1-0.6-1.1-1.2c0-0.6,0-0.6,0-0.6c0.1,0.2,1.3,0.8,1.7,1.9
		c0.1,0.5,0.5,1.3,0.8,2.1C405,201.8,404.4,200.8,404.1,200.6z M444.9,147.4l4.3,3.8l-4.6-3.1L444.9,147.4z M412.3,102.5v-6l1.8-3.5
		L412.3,102.5z"/>
	<path class="st0" d="M734.3,100c0.2,0.2,1.1,1.1,1.8,1c0.9-0.2,1.9-0.3,2-0.6c0-0.3-2.2-4.1-3.8-5.7c-1.6-1.6-1.6-2.2-1.6-2.8
		c0-0.6-0.1-1.2-0.1-1.2s0.5,0.2,0.5-0.4c0-0.6-1.1-1.2-1.1-1.6c0-0.3-0.4-2.3-0.6-3.1c-0.2-0.8-2.2-2.8-3-2.9
		c-0.8-0.1-0.8-0.1-0.8-0.1s-2.3-4.1-5.7-5.7c-3.4-1.7-6-2.3-6-2.3s0.1-0.7-1.2-0.8c-1.3-0.1-3.4-0.6-3.4-0.6s-4.7-1.2-6.5-1.3
		c-1.7-0.2-7.7,0.7-7.7,0.7s-7.5-0.8-11.9-0.3c-4.4,0.6-4.4,0.6-4.4,0.6s-9.5,1.5-11.7,3.2c-2.2,1.7-4.7,4.3-4.7,4
		c0-0.3,1.2-3.2,1.9-4c0.7-0.9,0.8-1.2,0.8-1.2s-0.7-0.7-1.4-0.2c-0.7,0.5-4.4,5-5.3,6c-0.9,1-1.7,3-1.7,3s-0.3-0.4-0.6,0.2
		c-0.2,0.7,0.1,0.6-0.3,1.3c-0.4,0.7-3.7,16.9-3.9,18.4c-0.2,1.6-0.3,1.8,0,2.1c0.4,0.3,0.6,0.6,0.4,1.6c-0.1,1-0.8,8.1-0.7,11.5
		c0.2,3.3,0.3,8.9,0.5,9.5c0.2,0.6,2.3,6,3.4,6.9c1.2,0.9,6,3.6,8.3,4.8c2.3,1.3,2.8,1.9,3.5,1.8c0.7-0.1,0.8-0.1,1.2,0.3
		c0.4,0.4,3.6,4,5.2,4.6c1.7,0.7,3.6,1.8,4.1,1.8c0.5,0.1,1.3,0.7,2.7,1.6c1.4,1,4.6,3.6,5.8,3.8c1.1,0.3,1.6,0.3,2.3,0.7
		c0.8,0.4,3.6,2.3,5.7,3.2c2.1,0.9,3.1,1.3,4.3,2.2c1.2,0.8,6.9,6.9,8,7.9c1,1,6.7,6.3,7.4,7c0.1,0.2,0.2,0.3,0.2,0.3
		c0,0-0.2,0-0.1,0.5c0.2,0.9,1.8,2.3,1.8,2.3s-0.6,1.7,0.1,2.8c0.7,1.1,1.6,3.1,1.6,3.3c-0.1,0.3-1.2,0.3-1.3,0.7
		c-0.1,0.4-0.4,0.8,0.2,2.7c0.6,1.9-0.5,4.3-1.1,6.7c-0.6,2.4-0.8,3.1-0.8,3.1l-4.7,10.5c0,0-1.9,1-2.2,1.1c-0.3,0.1-4.6,2.2-5,1.6
		c-0.4-0.6,1.7-0.9,2.1-1.2c0.4-0.3,1-0.8,0.4-1.3c-0.6-0.4-3-0.1-5.3,0.3c-2.2,0.3-10.8,0.8-10.8,0.8l-3.8-1c0,0-5.8-0.1-8.4-0.6
		c-2.6-0.6-3.6-1-3.6-1l-4.1-5.4c0,0-1.3-10.7-1.8-12.2c-0.6-1.4-1.9-7.4-2.7-10.5c-0.8-3.1-1-3.5-1-4c0-0.6,1.2-7.3,1.2-7.8
		c0-0.5-1.3-1-2.7-0.8s-4.5,0.1-5.8,0.1s-3-0.4-4.5,0c-1.5,0.4-3-0.8-3,0.5c0,1.3,0.7,10.1,0.4,11.3c-0.3,1.2-0.5,2.5-0.4,3.7
		c0.1,1.2,0.8,1.4,1,1.5c0.3,0.1-0.5,1.4-0.5,2.8c0,1.4-0.7,5.9,0,8.8c0.3,1.4,0.5,1.9,0.6,2l0.1-0.1c0,0,0,0.3-0.1,0.1l-0.6,0.5
		c0,0,0.2,1,0.8,1c0.6-0.1,0.5-0.1,0.7,0.9c0.2,1,0.7,2.1,1.6,2s1.1-0.4,1.4-0.2c0.3,0.2,2.8,3.8,5.7,6.2c2.9,2.4,4.3,3.4,4.3,3.8
		c0,0.3-1,0.3-0.5,0.6c0.6,0.3,7.6,3.2,7.8,3.5c0.2,0.3,0.2,1.4,1,1.4c0.8,0,2.3-0.8,3.8-0.1s1.9,1.2,3.1,1.4
		c1.2,0.3,0.7,1.1,1.6,1.1c0.8,0,1.1-0.1,1.4-0.5c0.3-0.4,0.6-0.2,1.9,0.3c1.4,0.6,3.3,1.2,3.6,0.7c0.3-0.5,0.3-0.8,0.3-0.8
		s2.3-0.1,2.5,0.2c0.2,0.3,0.5,1.1,1.9,1.2c1.4,0.1,4.5,0.2,5.3,0c0.9-0.2,1.6-0.6,1.6-0.6c1.3,0,5.8,0,7.6-0.7
		c1.9-0.7,4.2-1.5,5.1-1.8c1-0.3,5.9-0.7,8.1-1.9c2.2-1.2,5-3.6,5.7-5.1c0.8-1.5,1.6-3.2,1.9-3.7c0.3-0.5,1.6-3.2,1.6-4.6
		s0.3-5.6,0.3-6.2c0-0.6,0.3-0.7,0.9-1.9c0.6-1.2,1.6-3.2,1.6-4.3c0-1.2,0.4-6.7-0.4-8.2c-0.8-1.4-1-2-1-2l0.4-9
		c0,0-1.7-2.6-3.5-4.4c-1.8-1.8-7-7.2-7-7.2h-0.4c0,0-7.4-6.1-10.1-7.6c-2.8-1.6-4.7-3.6-5.1-4.2c-0.4-0.6-1.6-0.7-1.6-0.7l-2.5-1.7
		c0,0-10.1-4.7-10.6-5.3c-0.4-0.6-9.5-5.5-11.4-6.5c-1.9-1-9.5-4.9-9.5-4.9l-2.7-5.2c0,0,0.6-5.9,1-7.5c0.4-1.6,5.4-26.8,5.6-27
		c0.2-0.2,3.4-3.2,3.9-3.3s2.3-0.4,4.5-0.8c2.1-0.3,11-2.6,11.9-2.7c0.9-0.1,7.2-0.6,8.7,0c1.4,0.6,10.1,3.5,11.3,4.8
		c1.2,1.3-0.5,0.8-0.5,0.8s0.1,0.8,1.1,1c1.1,0.2,3,2.5,3.3,3.2c0.2,0.7,3.2,9.2,3.2,10.1s-0.1,1.8-0.3,3.6
		c-0.2,1.8-0.7,4.7-0.7,5.9c0.1,1.2,0.2,1.8,1,2.3c0.8,0.6,1.4-0.3,1.8-0.4c0.4-0.1,0.7-0.6,2.1,0.2c1.4,0.8,7-0.1,7.4-0.3
		c0.4-0.3,0.8-3.9,0.7-4.1c-0.1-0.2,0.5-0.5,0.8-0.8c0.4-0.4,0.4-0.6,0-1.9C735.5,104,734.4,100.4,734.3,100z M654.2,192.9
		c-0.5-1.2-0.4-3-0.4-3l1.1,3.9C654.9,193.8,654.7,194.1,654.2,192.9z M661.9,200.6c-0.6-0.4-1.1-0.6-1.1-1.2c0-0.6,0-0.6,0-0.6
		c0.1,0.2,1.3,0.8,1.7,1.9c0.1,0.5,0.5,1.3,0.8,2.1C662.7,201.8,662.2,200.8,661.9,200.6z M702.6,147.4l4.3,3.8l-4.6-3.1
		L702.6,147.4z M670.1,102.5v-6l1.8-3.5L670.1,102.5z"/>
	<path class="st0" d="M566.2,219.7c0,0,1.3-0.5,2.3-0.5s1.6,0.3,1.9,0.2c0.3-0.1,0.9-0.2,0.9-0.2v-5.6c0,0-0.9-0.5-1-1.1
		c-0.1-0.5,0.2-0.5,0.2-0.5s-0.1-3.6-0.1-4.1s-0.4-1-0.3-1.3c0.1-0.2-0.2-0.1-0.3-0.4c0-0.4,0.2-0.5,0.3-1c0.1-0.5,0-10.5,0-12
		c0-1.4-0.2-3.4,0.1-3.6c0.2-0.2,0.6,0.4,0.8-1.6c0.2-2,0.1-3.2,0.1-3.2s-0.4-0.7-0.3-1.4s0-0.8,0.2-1.2s-0.1-1.9,0.1-2.6
		c0.2-0.7,0.1-2.7,0.2-3.6c0.1-1,0.3-1.7,0.3-2.5s0.3-1,0.3-1s-0.4-0.4-0.4-0.7c0-0.3-0.1-1.7-0.1-2.7c0-0.9-0.4-1.4-0.6-2.5
		s-0.5-1.8-0.5-1.9s-0.1-2.7-0.1-2.7l0.4-0.3c0,0-0.2-1-0.4-1s-0.5-0.3-0.5-0.3s0.1-2.3,0.1-2.7s0-0.2,0-0.4s0.1-1.2-0.3-2.5
		c-0.4-1.3-0.3-4.7-0.4-6.5c-0.1-1.8-0.1-5.8,0.2-7c0.3-1.2,0.2-5.3,0.2-5.3s0.2-1.4,0.2-1.9s-0.2-3.5-0.2-3.5s0.2-1.4,0.3-1.9
		s0.1-3.2,0.1-4.9s0.2-5.2,0-7c-0.2-1.7-0.3-3.4-0.3-3.4s0,0-0.2-0.7c-0.2-0.8-0.5-1.5-0.5-1.5s0.3-1.3,0.3-1.7s0.2-0.5,0.2-0.5
		s1,0.2,1.3-0.8s0-2.2-0.1-3c0-0.8-0.1-1.6-0.1-2.3c0-0.7-0.1-1.4,0-1.8c0.1-0.4,0-3.5,0.2-4.1s0.5-1.1,0.6-1.8
		c0.1-0.7,0.2-3.6,0.2-3.6s0.1-0.9,0.3-2.7c0.3-1.7,0.7-2.7,0.5-3.4c-0.2-0.7-0.3-3.4-0.2-5c0.1-1.5,0.2-2.1,0.2-2.1s0.6,1,0.7,0.4
		c0.1-0.5,0.6-0.8,0.2-3.3c-0.4-2.5-0.6-2.6-0.6-3s0-0.7,0-0.7s-1.4-0.1-2.1,0c-0.8,0.1-2.4,0.5-2.8,0.4c-0.4-0.1-0.8,0.1-0.9-0.1
		c-0.1-0.2-0.9-0.4-1.5-0.2c-0.6,0.3-1.5,0.4-1.9,0.4c-0.4,0-1.5,0-2.1-0.2c-0.6-0.1-1-0.1-1-0.1s-0.1,2.9-0.4,4
		c-0.3,1.1-0.6,2-0.6,2.5c0,0.4,0.3-0.2,0.4,0.1c0.1,0.3-0.2,1.5-0.2,3.1s0.2,3.3,0,4.6c-0.1,1.2-0.6,0.9-0.6,3.3
		c0,2.4-0.2,3.9-0.2,6.5c0,2.7,0.1,5.1,0,6.9c-0.1,1.8,0.4,7.3,0.5,7.4c0.1,0,0.1,0.3,0,0.6c-0.1,0.2-0.6,1.2-0.5,2.6
		c0.1,1.4,0.5,4.9,0.4,6.1c-0.1,1.2,0.2,1.7,0.5,4.1c0.2,2.3,0.5,4.5,0.3,5.8c-0.2,1.3-0.3,2.9-0.3,3.6s0.1,0.7,0.1,1.6
		c0,0.8,0.2,2.4,0.1,3s0,1.7-0.1,2.1c-0.1,0.4-0.2,0.7-0.3,0.5c-0.1-0.2-1.3-0.8-1.7-0.3s-0.6,1.3-0.6,2.4s0.3,2,0,3.6
		c-0.3,1.6-0.5,1.4-0.6,3.8s0.3,6.4,0,8c-0.3,1.7,0,2.7,0.1,6.4c0.1,3.7,0.7,9.1,1,10.2c0.2,1.1,0.4,3.1,1,4.6
		c0.5,1.5,0.6,1.5,0.4,2.7c-0.2,1.2-0.6,4.9-0.6,6.1c0,1.2,0.1,7.1,0.1,8.6s-0.4,3.1-0.6,4.4s-0.4,2.7-0.6,4.3
		c-0.2,1.5-0.1,1.7,0.1,2.6s0.1,0.5,0.1,1.8s-0.2,1.9,0.7,2.1s1.4,0.4,1.4,0.7c0,0.3-1.3,0.4-1.7,0.4c-0.3-0.1-0.1,0.9,0.2,2
		c0.3,1.1,0.6,1.9,0.6,2.7c0,0.7-0.2,0.8-0.4,1.3c-0.1,0.5-0.6,0.7,0.2,0.6c0.9-0.1,1-1,2-0.7c1.1,0.2,0.8,0,2,0.7
		C563.8,219.8,565.2,219.8,566.2,219.7z"/>
</g>
</svg>
